 http://img194.imageshack.us/img194/4595/jumpingthebroom2011.jpg

Country.......: USA
Genre.........: Comedy
Date release..: 06.05.2011 [World]
Director......: Salim Akil
Writers.......: Elizabeth Hunter, Arlene Gibbs
Duration......: 110 min.
More..........: http://www.imdb.com/title/tt1640484
Trailer.......: http://www.imdb.com/video/imdb/vi2389350681
Trailer.......:

Pilot :
The film, "Jumping the Broom" is about an event for which there is a wedding between two black families of different economic status.

Cats :
Angela Bassett   	 ...  	Mrs. Watson
Paula Patton 	... 	Sabrina Watson
Laz Alonso 	... 	Jason Taylor
Loretta Devine 	... 	Mrs. Taylor
Meagan Good 	... 	Blythe
Tasha Smith 	... 	Shonda
Julie Bowen 	... 	Amy
DeRay Davis 	... 	Malcolm
Valarie Pettiford 	... 	Aunt Geneva
Mike Epps 	... 	Willie Earl
Pooch Hall 	... 	Ricky
Romeo 	Romeo 	... 	Sebastian (as Romeo Miller)
Brian Stokes Mitchell 	... 	Mr. Watson
Gary Dourdan 	... 	Chef
T.D. Jakes 	... 	Reverend James 

Data Technical :
!!! SAMPLE !!!
Audio.....: English
Subtitles.: English .srt, French .srt, Spanish .srt
Format                           : AVI
Format/Info                      : Audio Video Interleave
File size                        : 1.30 GiB
Duration                         : 1h 49mn
Overall bit rate                 : 1 692 Kbps
Writing library                  : VirtualDub build 32817/release
Video
ID                               : 0
Format                           : MPEG-4 Visual
Format profile                   : Advanced Simple@L5
Format settings, BVOP            : Yes
Format settings, QPel            : No
Format settings, GMC             : No warppoints
Format settings, Matrix          : Default (H.263)
Codec ID                         : XVID
Codec ID/Hint                    : XviD
Duration                         : 1h 49mn
Bit rate                         : 1 299 Kbps
Width                            : 672 pixels
Height                           : 384 pixels
Display aspect ratio             : 16:9
Frame rate                       : 23.976 fps
Color space                      : YUV
Chroma subsampling               : 4:2:0
Bit depth                        : 8 bits
Scan type                        : Progressive
Bits/(Pixel*Frame)               : 0.210
Stream size                      : 1 021 MiB (77%)
Writing library                  : XviD 1.2.1 (UTC 2008-12-04)
Audio
ID                               : 1
Format                           : AC-3
Format/Info                      : Audio Coding 3
Mode extension                   : CM (complete main)
Codec ID                         : 2000
Duration                         : 1h 49mn
Bit rate mode                    : Constant
Bit rate                         : 384 Kbps
Channel(s)                       : 6 channels
Channel positions                : Front: L C R, Side: L R, LFE
Sampling rate                    : 48.0 KHz
Bit depth                        : 16 bits
Stream size                      : 302 MiB (23%)
Alignment                        : Split accross interleaves
Interleave, duration             : 42 ms (1.00 video frame)
Interleave, preload duration     : 500 ms

Screen : 
http://img694.imageshack.us/img694/7130/jumpingthebroom2011s1.jpg 
http://img62.imageshack.us/img62/6043/jumpingthebroom2011s2.jpg 
http://img88.imageshack.us/img88/374/jumpingthebroom2011s3.jpg 
http://img193.imageshack.us/img193/2451/jumpingthebroom2011s4.jpg 
http://img94.imageshack.us/img94/1328/jumpingthebroom2011s5.jpg